# xmcd
#
# Track frame offsets: 
#        150
#        16544
#        31443
#        48039
#        66274
#        83049
#        96461
#        115747
#        129108
#        147080
#        161287
#        178192
#
# Disc length: 2589 seconds
#
# Revision: 1
# Processed by: cddbd v1.5.2PL0 Copyright (c) Steve Scherf et al.
# Submitted via: ExactAudioCopyFreeDBPlugin 1.0
#
DISCID=8d0a1b0c
DTITLE=Tim Gartland - If You Want A Good Woman
DYEAR=2017
DGENRE=Blues
TTITLE0=What The Blues Look Like
TTITLE1=Hour's Worth
TTITLE2=I Had It All
TTITLE3=If You Want A Good Woman
TTITLE4=I Come When You Call
TTITLE5=Eight Ball
TTITLE6=If That's What You Call Love
TTITLE7=Introduce Me To Your Hat
TTITLE8=Too Many Groceries
TTITLE9=Where's The Cure For you
TTITLE10=Willie That's Who
TTITLE11=Go West!
EXTD=
EXTT0=
EXTT1=
EXTT2=
EXTT3=
EXTT4=
EXTT5=
EXTT6=
EXTT7=
EXTT8=
EXTT9=
EXTT10=
EXTT11=
PLAYORDER=
